<svg xmlns="http://www.w3.org/2000/svg" viewBox="0 0 506.88 311.96"><g id="a26434fc-c0d5-45fa-a090-046030daa8d4" data-name="Layer 2"><g id="bad24538-fca4-4eed-bc26-f1ab918ee50e" data-name="Layer 1"><path fill="#FFFFF0" d="M506.88,292.46V19.55A19.52,19.52,0,0,0,487.38,0h-.45a18.76,18.76,0,0,0-3.52.35V.07H40.31V0H20.1c-.2,0-.4,0-.61,0H19A19.06,19.06,0,0,0,0,19.09c0,.07,0,.15,0,.23s0,.15,0,.23V292.46A19.5,19.5,0,0,0,19.49,312H487.38a19.51,19.51,0,0,0,19.5-19.5M328.21,156,472.1,279.35,459,292.45,314,168.17,253.51,220l-59.79-51.25L49.47,292.43,35.71,278.68,178.82,156,35,32.67l13.1-13.1L252.81,195.09l46.3-39.7-.13-.11h.27L457.58,19.54l13.77,13.77Z"/></g></g></svg>